HIERARCHY
ROOT Hips
{
	OFFSET 0.00000 0.00000 0.00000
	CHANNELS 6 Xposition Yposition Zposition Zrotation Yrotation Xrotation 
	JOINT LHipJoint
	{
		OFFSET 0 0 0
		CHANNELS 3 Zrotation Yrotation Xrotation
		JOINT LeftUpLeg
		{
			OFFSET 1.62964 -1.40469 0.78906
			CHANNELS 3 Zrotation Yrotation Xrotation
			JOINT LeftLeg
			{
				OFFSET 2.29640 -6.30932 0.00000
				CHANNELS 3 Zrotation Yrotation Xrotation
				JOINT LeftFoot
				{
					OFFSET 2.29451 -6.30412 0.00000
					CHANNELS 3 Zrotation Yrotation Xrotation
					JOINT LeftToeBase
					{
						OFFSET 0.03611 -0.09921 1.56387
						CHANNELS 3 Zrotation Yrotation Xrotation
						End Site
						{
							OFFSET 0.00000 -0.00000 0.80291
						}
					}
				}
			}
		}
	}
	JOINT RHipJoint
	{
		OFFSET 0 0 0
		CHANNELS 3 Zrotation Yrotation Xrotation
		JOINT RightUpLeg
		{
			OFFSET -1.73712 -1.40469 0.78906
			CHANNELS 3 Zrotation Yrotation Xrotation
			JOINT RightLeg
			{
				OFFSET -2.28137 -6.26801 0.00000
				CHANNELS 3 Zrotation Yrotation Xrotation
				JOINT RightFoot
				{
					OFFSET -2.28681 -6.28298 0.00000
					CHANNELS 3 Zrotation Yrotation Xrotation
					JOINT RightToeBase
					{
						OFFSET -0.15927 -0.43759 1.61103
						CHANNELS 3 Zrotation Yrotation Xrotation
						End Site
						{
							OFFSET -0.00000 -0.00000 0.84630
						}
					}
				}
			}
		}
	}
	JOINT LowerBack
	{
		OFFSET 0 0 0
		CHANNELS 3 Zrotation Yrotation Xrotation
		JOINT Spine
		{
			OFFSET -0.04227 2.04338 -0.00225
			CHANNELS 3 Zrotation Yrotation Xrotation
			JOINT Spine1
			{
				OFFSET -0.02148 2.04482 -0.04273
				CHANNELS 3 Zrotation Yrotation Xrotation
				JOINT Neck
				{
					OFFSET 0 0 0
					CHANNELS 3 Zrotation Yrotation Xrotation
					JOINT Neck1
					{
						OFFSET 0.09180 1.44629 0.19359
						CHANNELS 3 Zrotation Yrotation Xrotation
						JOINT Head
						{
							OFFSET 0.00887 1.40645 0.14750
							CHANNELS 3 Zrotation Yrotation Xrotation
							End Site
							{
								OFFSET -0.00669 1.50671 0.03707
							}
						}
					}
				}
				JOINT LeftShoulder
				{
					OFFSET 0 0 0
					CHANNELS 3 Zrotation Yrotation Xrotation
					JOINT LeftArm
					{
						OFFSET 2.17674 1.86763 -0.06520
						CHANNELS 3 Zrotation Yrotation Xrotation
						JOINT LeftForeArm
						{
							OFFSET 4.65776 -0.00000 0.00000
							CHANNELS 3 Zrotation Yrotation Xrotation
							JOINT LeftHand
							{
								OFFSET 3.55539 -0.00000 0.00000
								CHANNELS 3 Zrotation Yrotation Xrotation
								JOINT LeftFingerBase
								{
									OFFSET 0 0 0
									CHANNELS 3 Zrotation Yrotation Xrotation
									JOINT LeftHandIndex1
									{
										OFFSET 0.70726 -0.00000 0.00000
										CHANNELS 3 Zrotation Yrotation Xrotation
										End Site
										{
											OFFSET 0.57022 -0.00000 0.00000
										}
									}
								}
								JOINT LThumb
								{
									OFFSET 0 0 0
									CHANNELS 3 Zrotation Yrotation Xrotation
									End Site
									{
										OFFSET 0.57892 -0.00000 0.57892
									}
								}
							}
						}
					}
				}
				JOINT RightShoulder
				{
					OFFSET 0 0 0
					CHANNELS 3 Zrotation Yrotation Xrotation
					JOINT RightArm
					{
						OFFSET -2.80694 1.55459 -0.32496
						CHANNELS 3 Zrotation Yrotation Xrotation
						JOINT RightForeArm
						{
							OFFSET -4.71925 -0.00000 -0.00000
							CHANNELS 3 Zrotation Yrotation Xrotation
							JOINT RightHand
							{
								OFFSET -3.56990 -0.00000 0.00000
								CHANNELS 3 Zrotation Yrotation Xrotation
								JOINT RightFingerBase
								{
									OFFSET 0 0 0
									CHANNELS 3 Zrotation Yrotation Xrotation
									JOINT RightHandIndex1
									{
										OFFSET -0.50776 -0.00000 0.00000
										CHANNELS 3 Zrotation Yrotation Xrotation
										End Site
										{
											OFFSET -0.40937 -0.00000 0.00000
										}
									}
								}
								JOINT RThumb
								{
									OFFSET 0 0 0
									CHANNELS 3 Zrotation Yrotation Xrotation
									End Site
									{
										OFFSET -0.41562 -0.00000 0.41562
									}
								}
							}
						}
					}
				}
			}
		}
	}
}
MOTION
Frames: 13
Frame Time: .0083333
16.5903 19.6822 20.6843 0 0 0 0 0 0 -21 0 0 0 0 0 0 0 0 0 0 0 0 0 0 21 0 0 0 0 0 0 0 0 0 0 0 0 0 0 0 0 0 0 0 0 0 0 -16 0 0 21 0 0 11 0 0 0 -8 0 0 0 0 0 0 0 0 0 0 0 0 0 0 0 0 0 0 0 0 8 0 0 0 0 0 0 0 0 0 0 0 0 0 0 0 0 0
16.5903 19.6822 20.6843 177.7590 -3.8467 -152.8300 0.0000 0.0000 0.0000 -20.5584 -15.3114 -21.0876 0.1965 2.8547 7.8746 0.1735 -1.3052 -7.5164 3.4408 -11.3766 -33.5608 0.0000 0.0000 0.0000 19.1081 13.1155 -19.8537 -0.0775 -1.7959 4.9420 -1.0660 1.5511 -19.0594 -1.4228 7.5430 -21.3343 -6.5630 -2.0040 -30.4010 0.0590 -1.0785 -1.4415 3.1211 -1.1967 14.4332 -1.0332 -1.0250 -5.8902 1.9255 -1.3769 2.4077 0.7348 -0.6560 1.7767 0.0000 0.0000 0.0000 -84.5323 2.3649 17.9176 11.1385 -18.5002 -1.8196 -0.0000 -0.0000 6.5819 20.0144 -11.5265 -4.1630 -7.1250 0.0000 -0.0000 -4.9931 17.7621 3.2443 0.0000 0.0000 0.0000 91.4864 -5.2656 3.1995 -16.4167 26.0823 -3.8273 0.0000 -0.0000 -0.7707 -12.2447 -50.5034 9.5071 7.1250 -0.0000 -0.0000 57.6660 -74.8916 -43.6999
16.5924 19.6819 20.6871 177.8180 -3.8590 -152.8230 0.0000 0.0000 0.0000 -20.4629 -15.2902 -21.1375 0.1973 2.8605 7.8905 0.1522 -1.1280 -7.0571 2.6123 -10.0393 -29.1041 0.0000 0.0000 0.0000 19.1534 13.2911 -19.8150 -0.0777 -1.7982 4.9482 -1.0164 1.2259 -18.6846 -1.5111 7.7634 -21.9977 -6.5302 -1.9989 -30.3969 0.0805 -1.0906 -1.4656 3.1219 -1.2007 14.4050 -0.9885 -1.0128 -5.8219 1.9007 -1.3628 2.3722 0.7198 -0.6496 1.7519 -0.0000 0.0000 0.0000 -84.5026 2.4047 18.1085 11.1824 -18.5672 -1.8336 -0.0000 -0.0000 6.3815 20.0792 -11.5541 -4.1874 -7.1250 0.0000 -0.0000 -4.9483 17.7277 3.2187 -0.0000 0.0000 0.0000 91.4995 -5.2686 3.2565 -16.4380 26.1110 -3.8367 0.0000 -0.0000 -0.8124 -12.4796 -50.8392 9.7375 7.1250 -0.0000 -0.0000 58.6614 -75.1284 -44.8039
16.5940 19.6806 20.6890 177.8400 -3.8705 -152.8150 0.0000 0.0000 0.0000 -20.4061 -15.3643 -21.1304 0.1965 2.8548 7.8749 0.1535 -1.0563 -7.1035 2.6096 -10.0346 -29.0888 0.0000 0.0000 0.0000 19.1751 13.3008 -19.8952 -0.0814 -1.8407 5.0656 -0.9369 1.0449 -17.9730 -1.5573 7.8758 -22.3373 -6.4971 -1.9920 -30.3930 0.0745 -1.0929 -1.4692 3.0967 -1.1993 14.3990 -0.9525 -1.0041 -5.8537 1.8899 -1.3536 2.3707 0.7105 -0.6449 1.7565 0.0000 -0.0000 0.0000 -84.4283 2.3730 18.3216 11.2046 -18.6011 -1.8406 -0.0000 -0.0000 6.1331 20.2091 -11.5244 -4.2061 -7.1250 0.0000 -0.0000 -4.8567 17.7482 3.1564 0.0000 -0.0000 0.0000 91.5026 -5.3581 3.5522 -16.5416 26.2495 -3.8824 0.0000 -0.0000 -1.1691 -12.5558 -50.7824 9.7900 7.1250 -0.0000 -0.0000 58.4149 -75.1332 -44.5950
16.5945 19.6794 20.6889 177.8650 -3.8745 -152.8240 0.0000 0.0000 0.0000 -20.3792 -15.3616 -21.1264 0.1966 2.8553 7.8762 0.1747 -1.2419 -7.5554 3.4082 -11.3283 -33.3951 0.0000 0.0000 0.0000 19.2624 12.9463 -20.0599 -0.0844 -1.8741 5.1578 -1.0733 1.9400 -19.0299 -1.2523 7.0947 -19.9962 -6.4852 -1.9903 -30.4499 0.0973 -1.0885 -1.4356 3.1159 -1.1980 14.4642 -0.9830 -1.0478 -5.8298 1.9270 -1.4111 2.3350 0.7255 -0.6734 1.7423 -0.0000 -0.0000 0.0000 -84.4406 2.3208 18.4712 11.2557 -18.6791 -1.8570 -0.0000 -0.0000 5.9447 20.3650 -11.3151 -4.1656 -7.1250 0.0000 -0.0000 -4.7424 17.9562 3.0599 -0.0000 -0.0000 0.0000 91.4544 -5.4524 3.8290 -16.6600 26.4074 -3.9349 0.0000 -0.0000 -1.4849 -12.4608 -50.6186 9.6927 7.1250 -0.0000 -0.0000 57.9132 -75.0253 -44.0502
16.5949 19.6786 20.6905 177.8230 -3.8665 -152.8210 0.0000 0.0000 0.0000 -20.4481 -15.3337 -21.1589 0.1982 2.8667 7.9079 0.1554 -1.1473 -7.1302 2.6724 -10.1449 -29.4472 0.0000 0.0000 0.0000 19.2438 12.7011 -20.1646 -0.0843 -1.8731 5.1552 -1.0376 2.0875 -18.6673 -1.4474 7.6052 -21.5213 -6.5471 -1.9900 -30.5175 0.0837 -1.0616 -1.4292 3.1437 -1.1915 14.4986 -1.0080 -1.0841 -5.6821 2.0118 -1.4614 2.3135 0.7552 -0.6976 1.7111 0.0000 -0.0000 0.0000 -84.4288 2.3346 18.6092 11.3192 -18.7759 -1.8774 -0.0000 -0.0000 5.8157 20.3259 -11.2106 -4.1191 -7.1250 0.0000 -0.0000 -4.7674 18.0698 3.0642 0.0000 -0.0000 0.0000 91.4708 -5.5111 3.8844 -16.7030 26.4646 -3.9541 0.0000 -0.0000 -1.5314 -12.4671 -50.5979 9.6949 7.1250 -0.0000 -0.0000 57.8382 -75.0187 -43.9787
16.5957 19.6784 20.6943 177.7360 -3.8789 -152.8080 0.0000 0.0000 0.0000 -20.5536 -15.3552 -21.2093 0.2008 2.8854 7.9599 0.1559 -1.1579 -7.1389 2.7711 -10.3149 -30.0027 0.0000 0.0000 0.0000 19.1288 12.6878 -20.2083 -0.0846 -1.8756 5.1619 -0.9675 1.8576 -18.0578 -1.5660 7.8967 -22.4006 -6.6432 -2.0400 -30.5326 0.0879 -1.0981 -1.4481 3.1845 -1.2150 14.4870 -1.0580 -1.0623 -5.5667 2.0220 -1.4289 2.3336 0.7683 -0.6817 1.6972 -0.0000 -0.0000 0.0000 -84.4637 2.3898 18.6223 11.3752 -18.8610 -1.8954 -0.0000 -0.0000 5.7735 20.1201 -11.2599 -4.0915 -7.1250 0.0000 -0.0000 -4.9131 18.0346 3.1624 -0.0000 -0.0000 0.0000 91.4280 -5.5203 3.9547 -16.6925 26.4507 -3.9494 0.0000 -0.0000 -1.5243 -12.4951 -50.5638 9.7122 7.1250 -0.0000 -0.0000 57.7030 -75.0142 -43.8575
16.5962 19.6788 20.6968 177.7360 -3.9291 -152.8320 0.0000 0.0000 0.0000 -20.5372 -15.3816 -21.2209 0.2027 2.8991 7.9979 0.1750 -1.3431 -7.5450 3.5629 -11.5549 -34.1749 0.0000 0.0000 0.0000 19.1382 12.6838 -20.1465 -0.0825 -1.8525 5.0983 -1.0827 2.1778 -19.0607 -1.2172 6.9983 -19.7103 -6.6364 -2.0408 -30.5234 0.0949 -1.1017 -1.4450 3.1874 -1.2158 14.4872 -1.0425 -1.0523 -5.5722 2.0140 -1.4164 2.3387 0.7635 -0.6755 1.6993 -0.0000 -0.0000 0.0000 -84.4805 2.4195 18.6961 11.4426 -18.9635 -1.9173 -0.0000 -0.0000 5.7534 20.3754 -11.3693 -4.1875 -7.1250 0.0000 -0.0000 -4.7364 17.8981 3.0621 -0.0000 -0.0000 0.0000 91.4405 -5.4492 3.8501 -16.6635 26.4121 -3.9365 0.0000 -0.0000 -1.5019 -12.6177 -50.6819 9.8250 7.1250 -0.0000 -0.0000 58.0269 -75.1133 -44.2387
16.5974 19.6794 20.7000 177.7150 -3.9523 -152.8750 0.0000 0.0000 0.0000 -20.5404 -15.3971 -21.2114 0.2042 2.9095 8.0268 0.1549 -1.2630 -7.0964 2.6093 -10.0339 -29.0867 0.0000 0.0000 0.0000 19.0967 12.7895 -20.0518 -0.0818 -1.8446 5.0765 -1.0491 1.9260 -18.8111 -1.3568 7.3734 -20.8265 -6.6249 -2.0373 -30.5144 0.0783 -1.0959 -1.4291 3.1658 -1.2116 14.5008 -1.0557 -1.0572 -5.5182 2.0427 -1.4233 2.3415 0.7747 -0.6786 1.6912 -0.0000 0.0000 0.0000 -84.4983 2.4342 18.7241 11.5013 -19.0525 -1.9364 -0.0000 -0.0000 5.7831 20.8674 -11.6088 -4.3866 -7.1250 0.0000 -0.0000 -4.3979 17.6027 2.8705 -0.0000 0.0000 0.0000 91.4916 -5.3338 3.7162 -16.6204 26.3547 -3.9173 0.0000 -0.0000 -1.3788 -12.5584 -50.6333 9.7716 7.1250 -0.0000 -0.0000 57.8987 -75.0692 -44.0827
16.6006 19.6800 20.7051 177.6390 -3.9452 -152.8710 0.0000 0.0000 0.0000 -20.6012 -15.4177 -21.2563 0.2063 2.9242 8.0677 0.1530 -1.2697 -7.0517 2.6558 -10.1159 -29.3528 0.0000 0.0000 0.0000 18.9386 13.1214 -20.0026 -0.0844 -1.8736 5.1564 -0.9822 1.4083 -18.3113 -1.4063 7.5009 -21.2082 -6.7971 -2.0917 -30.4890 0.1300 -1.1170 -1.4364 3.3071 -1.2329 14.4851 -1.1676 -1.0893 -5.4547 2.1274 -1.4620 2.3962 0.8197 -0.6969 1.7006 0.0000 0.0000 0.0000 -84.6116 2.4281 18.7735 11.5456 -19.1196 -1.9509 -0.0000 -0.0000 5.7785 20.8754 -11.7897 -4.4556 -7.1250 0.0000 -0.0000 -4.3977 17.4103 2.8889 0.0000 0.0000 0.0000 91.4162 -5.2574 3.6486 -16.5907 26.3150 -3.9041 0.0000 -0.0000 -1.2434 -12.3758 -50.5220 9.6126 7.1250 -0.0000 -0.0000 57.6409 -74.9500 -43.7383
16.6031 19.6800 20.7078 177.6360 -3.9632 -152.8600 0.0000 0.0000 0.0000 -20.5853 -15.4393 -21.2773 0.2075 2.9330 8.0923 0.1703 -1.3401 -7.4394 3.5447 -11.5286 -34.0841 0.0000 0.0000 0.0000 18.9147 13.2670 -19.9889 -0.0854 -1.8846 5.1869 -1.0922 1.5829 -19.2905 -1.1923 6.9289 -19.5049 -6.7707 -2.0935 -30.4118 0.1035 -1.1433 -1.5094 3.2545 -1.2413 14.3669 -1.1923 -1.0766 -5.3306 2.1721 -1.4463 2.4710 0.8389 -0.6884 1.7033 0.0000 -0.0000 0.0000 -84.5499 2.5443 18.8784 11.6224 -19.2359 -1.9761 -0.0000 -0.0000 5.6481 20.6018 -11.5206 -4.2935 -7.1250 0.0000 -0.0000 -4.5815 17.7191 2.9793 0.0000 -0.0000 0.0000 91.4588 -5.3841 3.7608 -16.6266 26.3629 -3.9201 0.0000 -0.0000 -1.2647 -12.3235 -50.6224 9.5851 7.1250 -0.0000 -0.0000 58.0180 -74.9746 -44.0885
16.6036 19.6794 20.7087 177.6460 -3.9582 -152.8810 0.0000 0.0000 0.0000 -20.5652 -15.5252 -21.2074 0.2065 2.9260 8.0727 0.1546 -1.0912 -7.1206 2.7542 -10.2861 -29.9082 0.0000 0.0000 0.0000 18.9716 12.9451 -20.0406 -0.0837 -1.8666 5.1371 -1.0466 1.8079 -18.8158 -1.2694 7.1412 -20.1344 -6.8277 -2.1217 -30.4333 0.1703 -1.1633 -1.4861 3.3500 -1.2556 14.4084 -1.3445 -1.1123 -5.2649 2.2720 -1.4882 2.5311 0.8956 -0.7084 1.7149 -0.0000 -0.0000 0.0000 -84.6716 2.4673 18.8555 11.6659 -19.3017 -1.9905 -0.0000 -0.0000 5.6668 20.4792 -11.1702 -4.1381 -7.1250 0.0000 -0.0000 -4.6587 18.1001 2.9908 -0.0000 -0.0000 0.0000 91.3498 -5.3522 3.8676 -16.6500 26.3940 -3.9305 0.0000 -0.0000 -1.2813 -12.4434 -50.6778 9.6870 7.1250 -0.0000 -0.0000 58.1278 -75.0447 -44.2555
16.6050 19.6808 20.7116 177.6100 -3.9230 -152.9360 0.0000 0.0000 0.0000 -20.5954 -15.6134 -21.1324 0.2072 2.9307 8.0857 0.1586 -1.0366 -7.2267 2.6265 -10.0644 -29.1856 0.0000 0.0000 0.0000 18.9549 12.7098 -20.0402 -0.0825 -1.8523 5.0978 -0.9647 1.8655 -18.0290 -1.2862 7.1864 -20.2686 -6.8698 -2.1183 -30.3426 0.1427 -1.1476 -1.4994 3.3509 -1.2485 14.3499 -1.3937 -1.1210 -5.1786 2.3484 -1.5011 2.6003 0.9282 -0.7138 1.7238 0.0000 -0.0000 0.0000 -84.6405 2.4535 18.9368 11.6972 -19.3489 -2.0008 -0.0000 -0.0000 5.6021 20.7175 -11.1690 -4.1901 -7.1250 0.0000 -0.0000 -4.4912 18.0816 2.8844 0.0000 -0.0000 0.0000 91.4031 -5.2808 3.7798 -16.5964 26.3226 -3.9067 0.0000 -0.0000 -1.0748 -12.7736 -50.7963 9.9640 7.1250 -0.0000 -0.0000 58.3215 -75.2228 -44.6062
